<mxfile host="app.diagrams.net" modified="2021-01-09T13:30:34.866Z" agent="5.0 (Windows)" etag="o_6HR0AMSjUGPiAV8MsC" version="14.1.8" type="github">
  <diagram id="O1Fd1hSx3YS_spZO-yFG" name="Page-1">
    <mxGraphModel dx="865" dy="456" grid="0" gridSize="10" guides="1" tooltips="1" connect="1" arrows="1" fold="1" page="1" pageScale="1" pageWidth="827" pageHeight="1169" background="#FFFFFF" math="0" shadow="0">
      <root>
        <mxCell id="0" />
        <mxCell id="1" parent="0" />
        <mxCell id="gnwRhrLHRfS-qP5aQtxH-57" style="edgeStyle=orthogonalEdgeStyle;rounded=0;orthogonalLoop=1;jettySize=auto;html=1;exitX=0.5;exitY=1;exitDx=0;exitDy=0;exitPerimeter=0;entryX=0.5;entryY=0;entryDx=0;entryDy=0;" edge="1" parent="1" source="gnwRhrLHRfS-qP5aQtxH-48" target="gnwRhrLHRfS-qP5aQtxH-49">
          <mxGeometry relative="1" as="geometry" />
        </mxCell>
        <mxCell id="gnwRhrLHRfS-qP5aQtxH-48" value="开始" style="strokeWidth=2;html=1;shape=mxgraph.flowchart.terminator;whiteSpace=wrap;" vertex="1" parent="1">
          <mxGeometry x="210" y="76" width="50" height="30" as="geometry" />
        </mxCell>
        <mxCell id="gnwRhrLHRfS-qP5aQtxH-54" style="edgeStyle=orthogonalEdgeStyle;rounded=0;orthogonalLoop=1;jettySize=auto;html=1;exitX=0.5;exitY=1;exitDx=0;exitDy=0;entryX=0.5;entryY=0;entryDx=0;entryDy=0;entryPerimeter=0;" edge="1" parent="1" source="gnwRhrLHRfS-qP5aQtxH-49" target="gnwRhrLHRfS-qP5aQtxH-51">
          <mxGeometry relative="1" as="geometry" />
        </mxCell>
        <mxCell id="gnwRhrLHRfS-qP5aQtxH-49" value="&lt;pre style=&quot;background-color: rgb(255 , 255 , 255) ; font-family: &amp;#34;jetbrains mono&amp;#34; ; font-size: 9.8pt&quot;&gt;psignal = QtCore.pyqtSignal(&lt;span style=&quot;color: #000080&quot;&gt;int&lt;/span&gt;)&lt;span style=&quot;color: #8c8c8c ; font-style: italic ; font-family: &amp;#34;宋体&amp;#34;&quot;&gt;&lt;br&gt;&lt;/span&gt;ssignal = QtCore.pyqtSignal()&lt;br&gt;global pin =0&lt;br&gt;global flag = 0&lt;br&gt;global buffer[80]=[0,0....]&lt;/pre&gt;" style="rounded=0;whiteSpace=wrap;html=1;" vertex="1" parent="1">
          <mxGeometry x="125" y="142" width="220" height="88" as="geometry" />
        </mxCell>
        <mxCell id="gnwRhrLHRfS-qP5aQtxH-53" style="edgeStyle=orthogonalEdgeStyle;rounded=0;orthogonalLoop=1;jettySize=auto;html=1;exitX=0.5;exitY=1;exitDx=0;exitDy=0;exitPerimeter=0;entryX=0.5;entryY=0;entryDx=0;entryDy=0;entryPerimeter=0;" edge="1" parent="1" source="gnwRhrLHRfS-qP5aQtxH-51" target="gnwRhrLHRfS-qP5aQtxH-52">
          <mxGeometry relative="1" as="geometry" />
        </mxCell>
        <mxCell id="gnwRhrLHRfS-qP5aQtxH-70" style="edgeStyle=orthogonalEdgeStyle;rounded=0;orthogonalLoop=1;jettySize=auto;html=1;exitX=1;exitY=0.5;exitDx=0;exitDy=0;exitPerimeter=0;entryX=0;entryY=0.5;entryDx=0;entryDy=0;" edge="1" parent="1" source="gnwRhrLHRfS-qP5aQtxH-51" target="gnwRhrLHRfS-qP5aQtxH-58">
          <mxGeometry relative="1" as="geometry" />
        </mxCell>
        <mxCell id="gnwRhrLHRfS-qP5aQtxH-51" value="接收到结束信号？" style="strokeWidth=2;html=1;shape=mxgraph.flowchart.decision;whiteSpace=wrap;" vertex="1" parent="1">
          <mxGeometry x="165" y="417" width="140" height="58" as="geometry" />
        </mxCell>
        <mxCell id="gnwRhrLHRfS-qP5aQtxH-52" value="结束" style="strokeWidth=2;html=1;shape=mxgraph.flowchart.terminator;whiteSpace=wrap;" vertex="1" parent="1">
          <mxGeometry x="210" y="510" width="50" height="30" as="geometry" />
        </mxCell>
        <mxCell id="gnwRhrLHRfS-qP5aQtxH-65" style="edgeStyle=orthogonalEdgeStyle;rounded=0;orthogonalLoop=1;jettySize=auto;html=1;exitX=0.5;exitY=0;exitDx=0;exitDy=0;entryX=0.5;entryY=1;entryDx=0;entryDy=0;" edge="1" parent="1" source="gnwRhrLHRfS-qP5aQtxH-58" target="gnwRhrLHRfS-qP5aQtxH-61">
          <mxGeometry relative="1" as="geometry" />
        </mxCell>
        <mxCell id="gnwRhrLHRfS-qP5aQtxH-68" style="edgeStyle=orthogonalEdgeStyle;rounded=0;orthogonalLoop=1;jettySize=auto;html=1;exitX=1;exitY=0.5;exitDx=0;exitDy=0;entryX=0;entryY=0.5;entryDx=0;entryDy=0;" edge="1" parent="1" source="gnwRhrLHRfS-qP5aQtxH-58" target="gnwRhrLHRfS-qP5aQtxH-59">
          <mxGeometry relative="1" as="geometry">
            <mxPoint x="533" y="460" as="targetPoint" />
          </mxGeometry>
        </mxCell>
        <mxCell id="gnwRhrLHRfS-qP5aQtxH-58" value="&lt;pre style=&quot;background-color: #ffffff ; color: #080808 ; font-family: &amp;#34;jetbrains mono&amp;#34; ; font-size: 9.8pt&quot;&gt;P(empty)&lt;br&gt;&lt;/pre&gt;" style="rounded=0;whiteSpace=wrap;html=1;" vertex="1" parent="1">
          <mxGeometry x="358" y="431.25" width="88" height="29.5" as="geometry" />
        </mxCell>
        <mxCell id="gnwRhrLHRfS-qP5aQtxH-69" style="edgeStyle=orthogonalEdgeStyle;rounded=0;orthogonalLoop=1;jettySize=auto;html=1;exitX=1;exitY=0.5;exitDx=0;exitDy=0;entryX=0;entryY=0.5;entryDx=0;entryDy=0;" edge="1" parent="1" source="gnwRhrLHRfS-qP5aQtxH-59" target="gnwRhrLHRfS-qP5aQtxH-60">
          <mxGeometry relative="1" as="geometry" />
        </mxCell>
        <mxCell id="gnwRhrLHRfS-qP5aQtxH-59" value="flag==1?" style="rhombus;whiteSpace=wrap;html=1;" vertex="1" parent="1">
          <mxGeometry x="490" y="418.5" width="80" height="55" as="geometry" />
        </mxCell>
        <mxCell id="gnwRhrLHRfS-qP5aQtxH-73" style="edgeStyle=orthogonalEdgeStyle;rounded=0;orthogonalLoop=1;jettySize=auto;html=1;exitX=0.5;exitY=0;exitDx=0;exitDy=0;entryX=1;entryY=0.5;entryDx=0;entryDy=0;" edge="1" parent="1" source="gnwRhrLHRfS-qP5aQtxH-60" target="gnwRhrLHRfS-qP5aQtxH-61">
          <mxGeometry relative="1" as="geometry" />
        </mxCell>
        <mxCell id="gnwRhrLHRfS-qP5aQtxH-60" value="&lt;div&gt;发送停止生产信号&lt;/div&gt;&lt;div&gt;p(cmutex)停止执行进程，等待w(cmutex)&lt;br&gt;&lt;/div&gt;" style="rounded=0;whiteSpace=wrap;html=1;" vertex="1" parent="1">
          <mxGeometry x="611" y="416" width="128" height="60" as="geometry" />
        </mxCell>
        <mxCell id="gnwRhrLHRfS-qP5aQtxH-74" style="edgeStyle=orthogonalEdgeStyle;rounded=0;orthogonalLoop=1;jettySize=auto;html=1;exitX=0.5;exitY=0;exitDx=0;exitDy=0;entryX=0.5;entryY=1;entryDx=0;entryDy=0;" edge="1" parent="1" source="gnwRhrLHRfS-qP5aQtxH-61" target="gnwRhrLHRfS-qP5aQtxH-62">
          <mxGeometry relative="1" as="geometry" />
        </mxCell>
        <mxCell id="gnwRhrLHRfS-qP5aQtxH-61" value="p(mutex)访问缓冲池" style="rounded=0;whiteSpace=wrap;html=1;" vertex="1" parent="1">
          <mxGeometry x="343" y="366" width="118" height="31" as="geometry" />
        </mxCell>
        <mxCell id="gnwRhrLHRfS-qP5aQtxH-75" style="edgeStyle=orthogonalEdgeStyle;rounded=0;orthogonalLoop=1;jettySize=auto;html=1;exitX=0;exitY=0.5;exitDx=0;exitDy=0;" edge="1" parent="1" source="gnwRhrLHRfS-qP5aQtxH-62">
          <mxGeometry relative="1" as="geometry">
            <mxPoint x="237.5" y="284.83333333333337" as="targetPoint" />
          </mxGeometry>
        </mxCell>
        <mxCell id="gnwRhrLHRfS-qP5aQtxH-62" value="&lt;div&gt;发送生产完毕信号buffer[pin] += 1&lt;br&gt;pin = (pin + 1) % 80&lt;/div&gt;&lt;div&gt;W(mutex)&lt;/div&gt;&lt;div&gt;W(full)&lt;/div&gt;&lt;div&gt;sleep(0.1)&lt;br&gt;&lt;/div&gt;" style="rounded=0;whiteSpace=wrap;html=1;" vertex="1" parent="1">
          <mxGeometry x="334" y="240" width="136" height="89" as="geometry" />
        </mxCell>
      </root>
    </mxGraphModel>
  </diagram>
</mxfile>
